name ./resultDataOpenSim/trcMotMarkerGrf/sub06/grf-15-02.mot
datacolumns 19
datarows 25
range 1.64000000 1.73600000
endheader

                time	     ground_force_vx	     ground_force_vy	     ground_force_vz	     ground_force_px	     ground_force_py	     ground_force_pz	   l_ground_force_vx	   l_ground_force_vy	   l_ground_force_vz	   l_ground_force_px	   l_ground_force_py	   l_ground_force_pz	     ground_torque_x	     ground_torque_y	     ground_torque_z	   l_ground_torque_x	   l_ground_torque_y	   l_ground_torque_z	
          1.64000000	        150.64457267	        635.79196648	        -49.14551739	          0.96971887	          0.00000000	          0.07579696	          0.00000000	          0.00000000	          0.00000000	          0.00000000	          0.00000000	          0.00000000	          0.00000000	          3.30098835	          0.00000000	          0.00000000	          0.00000000	          0.00000000	
          1.64400000	        155.53919717	        635.65300741	        -49.03483706	          0.96956677	          0.00000000	          0.07565580	          0.00000000	          0.00000000	          0.00000000	          0.00000000	          0.00000000	          0.00000000	          0.00000000	          3.30424672	          0.00000000	          0.00000000	          0.00000000	          0.00000000	
          1.64800000	        160.81505413	        634.13512730	        -48.57238729	          0.96930130	          0.00000000	          0.07551693	          0.00000000	          0.00000000	          0.00000000	          0.00000000	          0.00000000	          0.00000000	          0.00000000	          3.28748397	          0.00000000	          0.00000000	          0.00000000	          0.00000000	
          1.65200000	        166.38313115	        631.28539137	        -47.86256708	          0.96896394	          0.00000000	          0.07538511	          0.00000000	          0.00000000	          0.00000000	          0.00000000	          0.00000000	          0.00000000	          0.00000000	          3.23966972	          0.00000000	          0.00000000	          0.00000000	          0.00000000	
          1.65600000	        172.11696119	        627.16908069	        -47.00381131	          0.96858239	          0.00000000	          0.07525483	          0.00000000	          0.00000000	          0.00000000	          0.00000000	          0.00000000	          0.00000000	          0.00000000	          3.15638080	          0.00000000	          0.00000000	          0.00000000	          0.00000000	
          1.66000000	        177.90666995	        621.81751615	        -46.11419752	          0.96814759	          0.00000000	          0.07512923	          0.00000000	          0.00000000	          0.00000000	          0.00000000	          0.00000000	          0.00000000	          0.00000000	          3.04153450	          0.00000000	          0.00000000	          0.00000000	          0.00000000	
          1.66400000	        183.62441826	        615.21395711	        -45.31526603	          0.96764860	          0.00000000	          0.07502663	          0.00000000	          0.00000000	          0.00000000	          0.00000000	          0.00000000	          0.00000000	          0.00000000	          2.90615267	          0.00000000	          0.00000000	          0.00000000	          0.00000000	
          1.66800000	        189.06249005	        607.32271401	        -44.67259546	          0.96708626	          0.00000000	          0.07495964	          0.00000000	          0.00000000	          0.00000000	          0.00000000	          0.00000000	          0.00000000	          0.00000000	          2.76453807	          0.00000000	          0.00000000	          0.00000000	          0.00000000	
          1.67200000	        193.94699433	        598.10495571	        -44.18632977	          0.96648725	          0.00000000	          0.07492412	          0.00000000	          0.00000000	          0.00000000	          0.00000000	          0.00000000	          0.00000000	          0.00000000	          2.62910419	          0.00000000	          0.00000000	          0.00000000	          0.00000000	
          1.67600000	        198.04120570	        587.49235835	        -43.82868755	          0.96590875	          0.00000000	          0.07491085	          0.00000000	          0.00000000	          0.00000000	          0.00000000	          0.00000000	          0.00000000	          0.00000000	          2.50590862	          0.00000000	          0.00000000	          0.00000000	          0.00000000	
          1.68000000	        201.23613330	        575.33281252	        -43.54758426	          0.96535851	          0.00000000	          0.07491110	          0.00000000	          0.00000000	          0.00000000	          0.00000000	          0.00000000	          0.00000000	          0.00000000	          2.39286528	          0.00000000	          0.00000000	          0.00000000	          0.00000000	
          1.68400000	        203.53400506	        561.34094154	        -43.24736093	          0.96479475	          0.00000000	          0.07492301	          0.00000000	          0.00000000	          0.00000000	          0.00000000	          0.00000000	          0.00000000	          0.00000000	          2.28136270	          0.00000000	          0.00000000	          0.00000000	          0.00000000	
          1.68800000	        204.93749551	        545.11140662	        -42.80869314	          0.96417742	          0.00000000	          0.07495975	          0.00000000	          0.00000000	          0.00000000	          0.00000000	          0.00000000	          0.00000000	          0.00000000	          2.16050351	          0.00000000	          0.00000000	          0.00000000	          0.00000000	
          1.69200000	        205.33428061	        526.21292448	        -42.11736720	          0.96350617	          0.00000000	          0.07504338	          0.00000000	          0.00000000	          0.00000000	          0.00000000	          0.00000000	          0.00000000	          0.00000000	          2.02222618	          0.00000000	          0.00000000	          0.00000000	          0.00000000	
          1.69600000	        204.45146954	        504.28588589	        -41.06169203	          0.96283737	          0.00000000	          0.07518695	          0.00000000	          0.00000000	          0.00000000	          0.00000000	          0.00000000	          0.00000000	          0.00000000	          1.86527337	          0.00000000	          0.00000000	          0.00000000	          0.00000000	
          1.70000000	        201.88371929	        479.08428917	        -39.54224478	          0.96224449	          0.00000000	          0.07539733	          0.00000000	          0.00000000	          0.00000000	          0.00000000	          0.00000000	          0.00000000	          0.00000000	          1.69645802	          0.00000000	          0.00000000	          0.00000000	          0.00000000	
          1.70400000	        197.15966811	        450.51576802	        -37.50850897	          0.96181551	          0.00000000	          0.07570349	          0.00000000	          0.00000000	          0.00000000	          0.00000000	          0.00000000	          0.00000000	          0.00000000	          1.52899244	          0.00000000	          0.00000000	          0.00000000	          0.00000000	
          1.70800000	        189.82283403	        418.73592158	        -34.97651793	          0.96169422	          0.00000000	          0.07614336	          0.00000000	          0.00000000	          0.00000000	          0.00000000	          0.00000000	          0.00000000	          0.00000000	          1.37902878	          0.00000000	          0.00000000	          0.00000000	          0.00000000	
          1.71200000	        179.53333183	        384.25236068	        -32.02397094	          0.96205094	          0.00000000	          0.07675614	          0.00000000	          0.00000000	          0.00000000	          0.00000000	          0.00000000	          0.00000000	          0.00000000	          1.26202733	          0.00000000	          0.00000000	          0.00000000	          0.00000000	
          1.71600000	        166.19044522	        347.95309982	        -28.78376654	          0.96304232	          0.00000000	          0.07755411	          0.00000000	          0.00000000	          0.00000000	          0.00000000	          0.00000000	          0.00000000	          0.00000000	          1.18997174	          0.00000000	          0.00000000	          0.00000000	          0.00000000	
          1.72000000	        150.02423271	        311.01205382	        -25.42261874	          0.96477344	          0.00000000	          0.07850533	          0.00000000	          0.00000000	          0.00000000	          0.00000000	          0.00000000	          0.00000000	          0.00000000	          1.16949548	          0.00000000	          0.00000000	          0.00000000	          0.00000000	
          1.72400000	        131.61599245	        274.67355801	        -22.10552716	          0.96726815	          0.00000000	          0.07951540	          0.00000000	          0.00000000	          0.00000000	          0.00000000	          0.00000000	          0.00000000	          0.00000000	          1.20050042	          0.00000000	          0.00000000	          0.00000000	          0.00000000	
          1.72800000	        111.86449275	        239.96610395	        -18.97117272	          0.97048599	          0.00000000	          0.08044756	          0.00000000	          0.00000000	          0.00000000	          0.00000000	          0.00000000	          0.00000000	          0.00000000	          1.27513777	          0.00000000	          0.00000000	          0.00000000	          0.00000000	
          1.73200000	         91.89284566	        207.47469613	        -16.11698875	          0.97428912	          0.00000000	          0.08118234	          0.00000000	          0.00000000	          0.00000000	          0.00000000	          0.00000000	          0.00000000	          0.00000000	          1.37768316	          0.00000000	          0.00000000	          0.00000000	          0.00000000	
          1.73600000	         72.86732566	        177.31524184	        -13.59170855	          0.97838090	          0.00000000	          0.08165878	          0.00000000	          0.00000000	          0.00000000	          0.00000000	          0.00000000	          0.00000000	          0.00000000	          1.48618679	          0.00000000	          0.00000000	          0.00000000	          0.00000000	
